# xmcd CD database file
#
# Track frame offsets:
#	150
#	23938
#	37737
#	76609
#	88896
#	105369
#	119558
#	154304
#	180418
#	202028
#	214866
#
# Disc length: 3395 seconds
#
# Revision: 0
# Processed by: cddbd v1.5.2PL0 Copyright (c) Steve Scherf et al.
# Submitted via: CDex 1.51
#
DISCID=870d410b
DTITLE=Creedance Clearwater Revival - Bayou Counbtry
DYEAR=2008
DGENRE=Country
TTITLE0=Born on the \Bayou
TTITLE1=Bootleg
TTITLE2=Graveyard Train
TTITLE3=Goo Golly Miss Molly
TTITLE4=Penthouse Pauper
TTITLE5=Proud Mary
TTITLE6=Keep on Chooglin
TTITLE7=Bootleg (Alternative Take)
TTITLE8=Born on The Bayou (live Engl.)
TTITLE9=Proud Mary (live Sweden)
TTITLE10=Crazzy Otto (live San Franc.)
EXTD=YEAR: 2008
EXTT0=
EXTT1=
EXTT2=
EXTT3=
EXTT4=
EXTT5=
EXTT6=
EXTT7=
EXTT8=
EXTT9=
EXTT10=
PLAYORDER=
